<svg width="32" height="32" viewBox="0 0 32 32" fill="none" xmlns="http://www.w3.org/2000/svg">
<g clip-path="url(#clip0_773_7254)">
<rect width="32" height="32" fill="white"/>
<rect width="32" height="32" rx="8" fill="#00664F"/>
<path d="M23.6871 7.28315V10.8151C22.3684 12.1341 21.0434 13.4594 19.7246 14.7784C19.5059 14.5596 19.2121 14.222 18.9684 13.7469C18.6996 13.2281 18.5871 12.7467 18.5434 12.4279L23.6871 7.28315ZM15.0559 15.9411C15.2996 15.8973 15.6309 15.8161 15.9996 15.6535C16.3121 15.516 16.8121 15.2472 17.2996 14.7534C17.4934 14.5596 18.2246 13.7719 18.4371 12.5342C18.4871 12.2404 18.4996 11.9903 18.4996 11.8215V5.53906H15.9996V13.2031C15.9996 13.3156 15.8621 13.3718 15.7871 13.2906L10.3871 7.88952C9.83086 8.50839 9.26836 9.12726 8.71211 9.74613L13.5059 14.5408C13.5871 14.6221 13.5309 14.7534 13.4184 14.7534H6.78711V17.2539H13.4184C13.5309 17.2539 13.5871 17.3914 13.5059 17.4664L8.71211 22.2673C9.26836 22.8862 9.83086 23.5051 10.3871 24.1239L15.7871 18.7229C15.8684 18.6416 15.9996 18.6979 15.9996 18.8104V26.4744H18.4996V20.1919C18.4996 19.9481 18.4809 19.7106 18.4371 19.4793V19.4605C18.2871 18.6104 17.8809 17.8477 17.2996 17.2601C17.0559 17.0163 16.6309 16.6412 16.0059 16.3662C15.6371 16.2036 15.3059 16.1224 15.0621 16.0786C15.0246 16.0786 14.9996 16.0474 14.9996 16.0161C14.9996 15.9849 15.0246 15.9598 15.0621 15.9536V15.9411H15.0559ZM23.6871 24.7241V21.1921L19.7246 17.2288C19.5059 17.4476 19.2121 17.7852 18.9684 18.2603C18.6996 18.7791 18.5871 19.2605 18.5434 19.5793L23.6871 24.7241Z" fill="#EEEEEE"/>
</g>
<defs>
<clipPath id="clip0_773_7254">
<rect width="32" height="32" fill="white"/>
</clipPath>
</defs>
</svg>
